<svg xmlns="http://www.w3.org/2000/svg" viewBox="0 0 256 256">
  <defs>
    <linearGradient id="bg" x1="0" y1="0" x2="1" y2="1">
      <stop offset="0" stop-color="#1b1e2b"/>
      <stop offset="1" stop-color="#07080f"/>
    </linearGradient>
  </defs>
  <rect width="256" height="256" rx="56" fill="url(#bg)"/>
  <g transform="translate(20 38) scale(0.92)" fill="#ec2d88">
    <path d="M185.348 118.513c-4.381-1.75-8.664-3.404-12.558-5.155a12.142 12.142 0 0 1-3.213-9.043c.681-3.89 1.296-4.162 6.905-9.45 15.954-15.04 14.504-24.662 30.458-22.739 15.954 1.923 9.186-62.814-1.934-69.98-14.534-9.366-95.478 14.005-87.022 29.941 8.455 15.936-23.206 31.39-23.206 31.39-2.175 2.171-6.18 2.953-8.732 4.662-14.117.973-31.252-19.45-58.414-14.975C9.84 56.052-2.315 72.702.372 90.506c.457 18.047 14.94 32.599 33.004 33.161 24.241 0 31.251-17.504 28.038-30.73-1.76-7.299-10.772-9.956-16.22-4.784a9.748 9.748 0 0 0-2.764 9.355c.876 4.084-.681 6.709-9.054 6.709-8.373 0-13.143-9.724-13.63-15.364 0-1.46-.876-14.587 10.514-16.434 15.189-2.432 26.579 7.974 40.89 12.836a27.51 27.51 0 0 1 12.656 25.381l-4.77 2.139c-11.975 5.349-25.507 11.378-31.348 25.187-8.153 15.103-4.757 33.831 8.178 45.122 24.046 20.033 56.855 1.361 49.65-22.658a19.463 19.463 0 0 0-16.16-14.393c-7.462.709-11.356 9.219-7.012 15.319a9.739 9.739 0 0 0 3.994 3.255c1.752 2.82-.487 4.668-2.337 5.932a15.2 15.2 0 0 1-15.48-2.432c-5.938-4.861-6.814-12.641-2.628-22.463 2.92-6.807 11.585-10.697 21.516-15.17a153.904 153.904 0 0 0 16.063-7.974 48.733 48.733 0 0 1 22.197 5.737 40.944 40.944 0 0 0 19.472 26.548 17.016 17.016 0 0 1 10.222 17.699 9.054 9.054 0 0 1-9.736 6.029c-7.494.001-12.178 8.105-8.431 14.588a9.738 9.738 0 0 0 8.431 4.861c13.074.673 24.906-7.689 28.623-20.227 3.152-14.008-2.604-28.515-14.506-36.564 3.115-7.002 6.231-8.169 9.736-8.46l9.735 3.889c15.285 6.029 36.314 14.296 36.314 23.826 0 14.587-12.559 6.515-13.143 4.57 0-7.485-8.113-12.165-14.604-8.422a9.724 9.724 0 0 0-4.868 8.422c0 26.743 52.086 36.564 52.086-4.57-.974-22.756-27.941-33.356-49.652-41.913Zm-84.31-46.387c-.366-7.477 7.509-12.545 14.175-9.124 6.665 3.422 7.122 12.769.822 16.824a9.74 9.74 0 0 1-5.748 1.539 9.731 9.731 0 0 1-9.249-9.239Zm28.526 20.81c-2.223-7.148 4.135-14.02 11.445-12.369 5.538 1.252 8.834 6.954 7.149 12.37-2.222 7.149-11.359 9.214-16.447 3.716a9.71 9.71 0 0 1-2.147-3.716Z"/>
  </g>
</svg>
